<?xml version="1.0" standalone="no"?>
<!DOCTYPE svg PUBLIC "-//W3C//DTD SVG 20010904//EN"
 "http://www.w3.org/TR/2001/REC-SVG-20010904/DTD/svg10.dtd">
<svg version="1.0" xmlns="http://www.w3.org/2000/svg"
 width="180.000000pt" height="86.000000pt" viewBox="0 0 180.000000 86.000000"
 preserveAspectRatio="xMidYMid meet">

<g transform="translate(0.000000,86.000000) scale(0.100000,-0.100000)"
fill="#000000" stroke="none">
<path d="M0 430 l0 -430 900 0 900 0 0 430 0 430 -900 0 -900 0 0 -430z m505
133 c18 -50 38 -115 45 -144 l13 -52 23 79 c12 43 33 108 46 144 l23 65 68 3
67 3 0 -206 0 -205 -45 0 -45 0 0 143 0 142 -48 -140 -47 -140 -40 -3 -41 -3
-46 133 -47 133 0 -132 -1 -133 -45 0 -45 0 0 205 0 206 66 -3 66 -3 33 -92z
m595 62 l0 -35 -90 0 -90 0 0 -55 0 -55 80 0 c87 0 98 -7 86 -55 -6 -24 -9
-25 -86 -25 l-80 0 0 -75 0 -75 -45 0 -45 0 0 205 0 205 135 0 135 0 0 -35z
m210 32 c0 -2 32 -92 70 -201 39 -109 70 -200 70 -202 0 -2 -22 -4 -49 -4 -49
0 -49 0 -63 43 l-15 42 -71 3 -71 3 -12 -46 -11 -45 -49 0 c-27 0 -49 3 -49 8
0 4 30 96 67 204 l68 198 58 0 c31 0 57 -1 57 -3z m255 -333 c22 -23 15 -56
-17 -73 -24 -14 -28 -14 -47 3 -23 21 -27 56 -9 74 17 17 54 15 73 -4z"/>
<path d="M1247 550 c-15 -42 -38 -133 -34 -137 3 -2 22 -3 44 -1 l39 3 -22 75
c-12 41 -24 68 -27 60z"/>
</g>
</svg>
